<svg xmlns="http://www.w3.org/2000/svg" version="1.1" xmlns:xlink="http://www.w3.org/1999/xlink" xmlns:svgjs="http://svgjs.dev/svgjs" width="1200" height="560" preserveAspectRatio="none" viewBox="0 0 1200 560"><g mask="url(&quot;#SvgjsMask1070&quot;)" fill="none"><path d="M1333.53 91.19C1245.09 90.84 1160.15 21.19 986.77 21.19 813.39 21.19 814 91.24 640 91.19 466.01 91.14 385.67-35.3 293.24-37.35" stroke="rgba(255, 92, 10, 0.24)" stroke-width="2"></path><path d="M1297.92 76.43C1162.92 77.04 971.03 189.02 769.67 188.43 568.3 187.84 595.42-48.24 505.54-68.14" stroke="rgba(255, 92, 10, 0.24)" stroke-width="2"></path><path d="M1246.73 368.77C1113.64 360.42 1040.78 124.17 779.66 111.17 518.55 98.17 440.79-96.39 312.6-101.3" stroke="rgba(255, 92, 10, 0.24)" stroke-width="2"></path><path d="M1289.76 355.03C1175.87 340.5 1136.24 97.68 921.51 80.63 706.78 63.58 654.86-87.92 553.26-92.14" stroke="rgba(255, 92, 10, 0.24)" stroke-width="2"></path><path d="M1367.66 457.54C1251.12 455.21 1130.75 325.23 928.55 300.74 726.34 276.25 797.86 18.32 708.99-21.99" stroke="rgba(255, 92, 10, 0.24)" stroke-width="2"></path></g><defs><mask id="SvgjsMask1070"><rect width="1200" height="560" fill="#ffffff"></rect></mask></defs></svg>